<?xml version="1.0" encoding="UTF-8"?>
<svg width="215px" height="429px" viewBox="0 0 215 429" version="1.1" xmlns="http://www.w3.org/2000/svg" xmlns:xlink="http://www.w3.org/1999/xlink">
    <!-- Generator: Sketch 51.3 (57544) - http://www.bohemiancoding.com/sketch -->
    <title>undraw_email_capture_x8kv</title>
    <desc>Created with Sketch.</desc>
    <defs>
        <linearGradient x1="50%" y1="100%" x2="50%" y2="0%" id="linearGradient-1">
            <stop stop-color="#808080" stop-opacity="0.25" offset="0%"></stop>
            <stop stop-color="#808080" stop-opacity="0.12" offset="54%"></stop>
            <stop stop-color="#808080" stop-opacity="0.1" offset="100%"></stop>
        </linearGradient>
        <linearGradient x1="49.8033818%" y1="100%" x2="49.8033818%" y2="0%" id="linearGradient-2">
            <stop stop-color="#808080" stop-opacity="0.25" offset="0%"></stop>
            <stop stop-color="#808080" stop-opacity="0.12" offset="54%"></stop>
            <stop stop-color="#808080" stop-opacity="0.1" offset="100%"></stop>
        </linearGradient>
        <linearGradient x1="50.1331755%" y1="100%" x2="50.1331755%" y2="4.19446715e-14%" id="linearGradient-3">
            <stop stop-color="#808080" stop-opacity="0.25" offset="0%"></stop>
            <stop stop-color="#808080" stop-opacity="0.12" offset="54%"></stop>
            <stop stop-color="#808080" stop-opacity="0.1" offset="100%"></stop>
        </linearGradient>
        <linearGradient x1="49.7095991%" y1="100.02869%" x2="49.7095991%" y2="0.0143451442%" id="linearGradient-4">
            <stop stop-color="#808080" stop-opacity="0.25" offset="0%"></stop>
            <stop stop-color="#808080" stop-opacity="0.12" offset="54%"></stop>
            <stop stop-color="#808080" stop-opacity="0.1" offset="100%"></stop>
        </linearGradient>
        <linearGradient x1="50.1357876%" y1="99.9849534%" x2="50.1357876%" y2="-0.0150466446%" id="linearGradient-5">
            <stop stop-color="#808080" stop-opacity="0.25" offset="0%"></stop>
            <stop stop-color="#808080" stop-opacity="0.12" offset="54%"></stop>
            <stop stop-color="#808080" stop-opacity="0.1" offset="100%"></stop>
        </linearGradient>
        <linearGradient x1="50.1304726%" y1="99.9277039%" x2="50.1304726%" y2="-0.0722961249%" id="linearGradient-6">
            <stop stop-color="#808080" stop-opacity="0.25" offset="0%"></stop>
            <stop stop-color="#808080" stop-opacity="0.12" offset="54%"></stop>
            <stop stop-color="#808080" stop-opacity="0.1" offset="100%"></stop>
        </linearGradient>
        <linearGradient x1="50.136671%" y1="100.014347%" x2="50.136671%" y2="0.0143472023%" id="linearGradient-7">
            <stop stop-color="#808080" stop-opacity="0.25" offset="0%"></stop>
            <stop stop-color="#808080" stop-opacity="0.12" offset="54%"></stop>
            <stop stop-color="#808080" stop-opacity="0.1" offset="100%"></stop>
        </linearGradient>
        <linearGradient x1="50%" y1="99.9929647%" x2="50%" y2="0%" id="linearGradient-8">
            <stop stop-color="#808080" stop-opacity="0.25" offset="0%"></stop>
            <stop stop-color="#808080" stop-opacity="0.12" offset="54%"></stop>
            <stop stop-color="#808080" stop-opacity="0.1" offset="100%"></stop>
        </linearGradient>
        <linearGradient x1="71.8256819%" y1="97.046495%" x2="23.4806241%" y2="-3.03456443%" id="linearGradient-9">
            <stop stop-color="#808080" stop-opacity="0.25" offset="0%"></stop>
            <stop stop-color="#808080" stop-opacity="0.12" offset="54%"></stop>
            <stop stop-color="#808080" stop-opacity="0.1" offset="100%"></stop>
        </linearGradient>
    </defs>
    <g id="Page-1" stroke="none" stroke-width="1" fill="none" fill-rule="evenodd">
        <g id="Contact-Me" transform="translate(-855.000000, -331.000000)">
            <g id="undraw_email_capture_x8kv" transform="translate(960.608975, 545.218349) rotate(-89.000000) translate(-960.608975, -545.218349) translate(745.608975, 437.718349)">
                <g id="Group" opacity="0.5" transform="translate(0.394428, 46.285566)" fill="url(#linearGradient-1)" fill-rule="nonzero">
                    <path d="M65.5758772,33.4195205 L155,33.4195205 L155,0.0744863014 L65.5758772,0.0744863014 C29.5089181,0.0744863014 0,32.585274 0,72.3261986 C0,112.052226 29.5089181,144.577911 65.5758772,144.577911 L155,144.577911 L155,111.232877 L65.5758772,111.232877 C56.2007243,111.232672 47.2188795,107.104764 40.6489766,99.7768836 C33.9914655,92.5049869 30.2495808,82.6286434 30.2495808,72.3286815 C30.2495808,62.0287197 33.9914655,52.1523761 40.6489766,44.8804795 C47.2181254,37.550775 56.200065,33.4210341 65.5758772,33.4195205 Z" id="Path"></path>
                </g>
                <path d="M41.6973052,145.543677 C31.7359445,134.612065 28.7639646,118.212819 34.1612778,103.960231 C39.5585909,89.7076437 52.2679141,80.3936621 66.3882143,80.3428374 L121.388214,80.3428374 L121.388214,47.5736066 L66.3882143,47.5736066 C30.6382143,47.5736066 1.38821433,79.5236066 1.38821433,118.573607 C1.38821433,157.623607 30.6382143,189.573607 66.3882143,189.573607 L121.388214,189.573607 L121.388214,156.804376 L66.3882143,156.804376 C57.1114209,156.803262 48.2205628,152.748438 41.6973052,145.543677 Z" id="Path" fill="#535461" fill-rule="nonzero"></path>
                <rect id="Rectangle" fill="#E0E0E0" fill-rule="nonzero" x="121.853898" y="156.729968" width="34" height="33"></rect>
                <rect id="Rectangle" fill="#E0E0E0" fill-rule="nonzero" x="120.933981" y="46.7292696" width="34" height="33"></rect>
                <g id="Group" opacity="0.5" transform="translate(267.379352, 58.969488) rotate(90.000000) translate(-267.379352, -58.969488) translate(240.379352, 29.969488)" fill="url(#linearGradient-2)" fill-rule="nonzero">
                    <path d="M36.0156522,43.205 C47.6976522,43.205 53.1,36.415 53.1,27.315 C53.1,11.425 41.2748609,0.01 26.6007913,0.01 C12.0246794,0.217804687 0.309175306,13.0722068 0.309175306,28.8575 C0.309175306,44.6427932 12.0246794,57.4971953 26.6007913,57.705 C32.0169693,57.654195 37.2854771,55.786859 41.6811913,52.36 C42.1210132,52.0218188 42.4171063,51.5066523 42.503087,50.93 C42.5909962,50.4393034 42.4350527,49.9346047 42.0921391,49.6 C41.7382159,49.2735751 41.2747371,49.1215115 40.813022,49.1803319 C40.3513068,49.2391524 39.9330734,49.5035423 39.6587739,49.91 C38.6891217,51.29 35.7940174,53.625 27.2287565,53.835 C14.2677391,54.155 3.42148696,42.98 3.37993043,28.94 C3.33837391,15.015 13.8983478,4.02 26.6007913,3.865 C39.3032348,3.71 49.5353739,13.43 49.5353739,27.005 C49.5353739,35.645 43.9945043,39.655 37.2854348,39.505 C35.1475826,39.66 34.7227826,38.735 35.0044435,35.505 C35.2399304,32.845 37.5855652,21.755 38.4166957,17.875 C38.5630307,17.2226769 38.4189066,16.5337881 38.0272359,16.013449 C37.6355652,15.4931098 37.0415224,15.201335 36.4219826,15.225 L36.2788435,15.225 C35.3723374,15.3429871 34.6584766,16.1180669 34.5519391,17.1 C34.4784944,17.7236374 34.4384101,18.3513516 34.431887,18.98 C33.1482522,16.205 30.1561826,14.045 26.5823217,13.89 C19.032887,14.045 12.4808087,21.45 12.1945304,32.25 C12.1945304,39.5 15.7545391,43.665 21.8910522,43.665 C26.1667565,43.665 29.2788783,40.89 31.0104,38.265 C31.0196348,38.27 30.8764957,42.895 36.0156522,43.205 Z M22.4820783,39.965 C18.6357913,39.965 16.3548,36.88 16.3548,31.965 C16.3548,23.465 21.6278609,18.08 26.6100261,18.08 C31.0242522,18.08 32.7373043,21.32 32.8804435,25.64 C32.8712087,32.575 28.7386435,39.965 22.4728435,39.965 L22.4820783,39.965 Z" id="Shape"></path>
                </g>
                <path d="M275.625107,73.1533281 C286.398157,73.1533281 291.388155,66.6698315 291.388155,58.0068826 C291.388155,42.8604372 280.4859,31.9781376 266.954985,31.9781376 C253.387099,31.9781376 242.388155,44.290307 242.388155,59.4781376 C242.388155,74.6659682 253.387099,86.9781376 266.954985,86.9781376 C271.948816,86.9305269 276.806726,85.1515717 280.86015,81.8860992 C281.267147,81.5652042 281.541713,81.074525 281.622016,80.5245649 C281.703127,80.0571716 281.559397,79.5763919 281.24331,79.2577894 C280.917859,78.9526161 280.49438,78.8111979 280.072756,78.8668897 C279.651132,78.9225815 279.26869,79.1704526 279.015633,79.5520404 C278.124561,80.8637016 275.451348,83.093027 267.552003,83.2925192 C255.598284,83.5967448 245.600466,72.9438612 245.560368,59.5579345 C245.52027,46.2867158 255.259677,35.8034006 266.972807,35.6587687 C278.685936,35.5141369 288.122379,44.7755624 288.122379,57.7176189 C288.122379,65.9516596 282.99872,69.7769225 276.823598,69.6273034 C274.85433,69.7719352 274.457804,68.8941695 274.72067,65.8020404 C274.934527,63.2635022 277.09983,52.6954028 277.870606,48.9998097 C278.004719,48.3782186 277.871336,47.722188 277.510118,47.2267912 C277.148901,46.7313944 276.601447,46.4536822 276.030544,46.4762334 L275.896884,46.4762334 C275.060763,46.589852 274.403149,47.3301065 274.306322,48.2666759 C274.23825,48.8622425 274.20106,49.4617235 274.194938,50.0621057 C273.014269,47.4138467 270.251948,45.3540898 266.968351,45.2094579 C260.004631,45.3540898 253.963168,52.4161137 253.700302,62.7099113 C253.700302,69.6223161 256.9839,73.5922109 262.63329,73.5922109 C266.57628,73.5922109 269.46335,70.9439519 271.040546,68.4453121 C271.02718,68.4403248 270.897975,72.8540898 275.625107,73.1533281 Z M263.150112,70.0661862 C259.585827,70.0661862 257.500721,67.1236763 257.500721,62.4206476 C257.500721,54.3312388 262.361514,49.18434 266.959441,49.18434 C271.031635,49.18434 272.608831,52.2714818 272.751403,56.3909958 C272.738037,62.999175 268.910886,70.0611989 263.145656,70.0611989 L263.150112,70.0661862 Z" id="Shape" fill="#393939" fill-rule="nonzero" transform="translate(266.888155, 59.478138) rotate(90.000000) translate(-266.888155, -59.478138) "></path>
                <g id="Group" opacity="0.5" transform="translate(316.638736, 16.103264) rotate(90.000000) translate(-316.638736, -16.103264) translate(300.638736, -0.896736)" fill="url(#linearGradient-3)" fill-rule="nonzero">
                    <path d="M21.7093858,25.365 C28.683045,25.365 31.9117647,21.365 31.9117647,16.035 C31.9117647,6.705 24.8724048,-1.42108547e-14 16.0966696,-1.42108547e-14 C7.31558091,-1.42108547e-14 0.197102076,7.58429634 0.197102076,16.94 C0.197102076,26.2957037 7.31558091,33.88 16.0966696,33.88 C19.3295251,33.8498911 22.4741458,32.7528891 25.0976644,30.74 C25.3522387,30.5371754 25.5209896,30.2351221 25.566955,29.9 C25.6197154,29.6123892 25.5270999,29.3163609 25.3229239,29.12 C25.1115814,28.9278211 24.8346984,28.8380356 24.5587026,28.872184 C24.2827068,28.9063325 24.0325046,29.0613334 23.8681228,29.3 C23.2908953,30.11 21.5592128,31.48 16.4486375,31.605 C12.7324727,31.7111144 9.13201499,30.2225673 6.4556952,27.4735906 C3.77937542,24.7246139 2.25147138,20.9455741 2.2150519,16.985 C2.19158737,8.81 8.4941609,2.35 16.073205,2.26 C23.6522491,2.17 29.7624135,7.875 29.7624135,15.85 C29.7624135,20.925 26.4445285,23.28 22.4508651,23.19 C21.1743945,23.28 20.9209775,22.735 21.0899221,20.835 C21.2307093,19.275 22.6291955,12.76 23.1266436,10.485 C23.2135006,10.1018424 23.1270564,9.69745632 22.8930316,9.3921635 C22.6590069,9.08687067 22.3043719,8.91585472 21.9346453,8.93 L21.850173,8.93 C21.3103403,8.99994269 20.8856133,9.45452911 20.8224265,10.03 C20.7789706,10.3965777 20.7554668,10.7655281 20.7520329,11.135 C19.804609,9.31200366 18.0147054,8.16778513 16.0591263,8.135 C11.553936,8.225 7.6400519,12.575 7.47110727,18.915 C7.47110727,23.175 9.59699394,25.62 13.2527682,25.62 C15.4429081,25.5681155 17.4729217,24.3860043 18.6965398,22.45 C18.6965398,22.45 18.6449178,25.185 21.7093858,25.365 Z M13.6094291,23.465 C11.3145978,23.465 9.95365484,21.655 9.95365484,18.755 C9.95365484,13.755 13.0979022,10.6 16.0544334,10.6 C18.6918469,10.6 19.7102076,12.5 19.8087587,15.04 C19.8369161,19.115 17.3637543,23.465 13.6094291,23.465 Z" id="Shape"></path>
                </g>
                <path d="M322.488539,24.2996521 C329.080918,24.2996521 332.13866,20.4163939 332.13866,15.2096474 C332.13866,6.11964278 325.462123,-0.405462144 317.177232,-0.405462144 C308.871658,-0.405462144 302.13866,6.98183948 302.13866,16.0945379 C302.13866,25.2072362 308.871658,32.5945379 317.177232,32.5945379 C320.237112,32.5597516 323.21181,31.4843727 325.69122,29.5166582 C325.94041,29.324527 326.108858,29.0306673 326.158764,28.7010201 C326.208477,28.4214193 326.121632,28.13362 325.929668,27.9418097 C325.730618,27.7522405 325.467894,27.663645 325.206164,27.6978312 C324.944434,27.7320174 324.70801,27.88581 324.555086,28.1213527 C324.008059,28.9113418 322.371653,30.2450897 317.541917,30.3682049 C314.02574,30.4772244 310.61751,29.0291256 308.085321,26.3502578 C305.553132,23.67139 304.110055,19.9871675 304.081308,16.1278816 C304.057931,8.16643277 310.019124,1.87729862 317.172557,1.76444303 C324.32599,1.65158744 330.132894,7.26871787 330.132894,15.0352343 C330.132894,19.9752312 326.995669,22.2682515 323.217909,22.1810449 C322.011644,22.2682515 321.768521,21.7398822 321.932161,19.8880246 C322.063074,18.3490847 323.3909,12.024042 323.858445,9.8079686 C323.949373,9.43140833 323.871788,9.02984685 323.649429,8.72615245 C323.427069,8.42245805 323.086402,8.2527774 322.731662,8.26902876 L322.65218,8.26902876 C322.140982,8.33650952 321.738738,8.77996453 321.679687,9.34115685 C321.637363,9.69845493 321.613947,10.0581439 321.609555,10.4184147 C320.715901,8.64782701 319.026412,7.53797271 317.181908,7.50981844 C312.917901,7.59702503 309.233649,11.8342394 309.060658,18.010518 C309.060658,22.1553959 311.0711,24.5407527 314.53093,24.5407527 C316.598736,24.4905393 318.51593,23.3431734 319.673921,21.462873 C319.673921,21.462873 319.594438,24.1201091 322.488539,24.2996521 Z M314.84886,22.4477945 C312.679453,22.4477945 311.38903,20.6831435 311.38903,17.8617538 C311.38903,13.0089635 314.362614,9.92082419 317.177232,9.92082419 C319.669245,9.92082419 320.637063,11.7726818 320.716545,14.2452451 C320.721221,18.2105801 318.388173,22.4477945 314.84886,22.4477945 Z" id="Shape" fill="#393939" fill-rule="nonzero" transform="translate(317.138660, 16.094538) rotate(90.000000) translate(-317.138660, -16.094538) "></path>
                <g id="Group" opacity="0.5" transform="translate(365.759636, 51.251339) rotate(90.000000) translate(-365.759636, -51.251339) translate(349.759636, 33.751339)" fill="url(#linearGradient-4)" fill-rule="nonzero">
                    <path d="M21.5658781,25.8852113 C28.6327153,25.8852113 31.9117647,21.8429577 31.9117647,16.4204225 C31.9117647,6.9556338 24.7570546,0.152816901 15.8772592,0.152816901 C7.08083081,0.31163404 0.0279354687,7.95758462 0.0279354687,17.3348592 C0.0279354687,26.7121337 7.08083081,34.3580843 15.8772592,34.5169014 C19.1545958,34.486231 22.3424688,33.3736942 25.0021739,31.3323944 C25.2695093,31.1313017 25.4495598,30.823887 25.5016624,30.4795775 C25.5552836,30.18661 25.4604288,29.8851709 25.2519182,29.6859155 C25.0373448,29.4928318 24.7571952,29.4033658 24.4783642,29.4388803 C24.1995331,29.4743948 23.9470496,29.6317019 23.781202,29.8732394 C23.1938406,30.6915493 21.441006,32.0866197 16.2565004,32.2098592 C12.4883463,32.3184658 8.83719204,30.8091817 6.12304903,28.0209763 C3.40890601,25.2327709 1.85928257,21.3993609 1.82220801,17.3816901 C1.79445865,9.09014085 8.18606138,2.53873239 15.8726343,2.44507042 C23.5592072,2.35140845 29.7473146,8.14366197 29.7473146,16.2478873 C29.7473146,21.3943662 26.3850171,23.7802817 22.3474851,23.6915493 C21.0525149,23.7852113 20.7935209,23.2330986 20.9600171,21.3007042 C21.1033887,19.7183099 22.523231,13.1126761 23.0273444,10.8007042 C23.1159223,10.412244 23.0286837,10.0019871 22.7916268,9.69219515 C22.5545699,9.38240324 22.1950643,9.20884367 21.8202472,9.22323944 L21.7323743,9.22323944 C21.1826074,9.29263365 20.7498256,9.75596779 20.6871483,10.3422535 C20.6422841,10.7134279 20.6175768,11.0870552 20.61315,11.4612676 C19.6512296,9.62405175 17.8461814,8.46967381 15.8726343,8.42957746 C11.3032396,8.52323944 7.33970588,12.9302817 7.16395993,19.3633803 C7.16395993,23.6816901 9.31916027,26.1612676 13.0283248,26.1612676 C15.2480704,26.1086002 17.3055308,24.9100765 18.5458227,22.9471831 C18.5458227,22.9471831 18.4625746,25.7077465 21.5658781,25.8852113 Z M13.3751918,23.9577465 C11.0627451,23.9577465 9.67527707,22.1190141 9.67527707,19.1809859 C9.67527707,14.128169 12.8664535,10.9091549 15.8818841,10.9091549 C18.5550725,10.9091549 19.5817988,12.8366197 19.6742967,15.4098592 C19.6696718,19.5457746 17.1722293,23.9577465 13.3751918,23.9577465 Z" id="Shape"></path>
                </g>
                <path d="M370.109668,59.473906 C376.702047,59.473906 379.759788,55.5906478 379.759788,50.3839014 C379.759788,41.2938967 373.083251,34.7687918 364.798361,34.7687918 C356.492787,34.7687918 349.759788,42.1560934 349.759788,51.2687918 C349.759788,60.3814902 356.492787,67.7687918 364.798361,67.7687918 C367.85824,67.7340055 370.832938,66.6586267 373.312348,64.6909121 C373.561539,64.4987809 373.729987,64.2049212 373.779893,63.875274 C373.829606,63.5956733 373.74276,63.3078739 373.550796,63.1160637 C373.351746,62.9264944 373.089022,62.8378989 372.827292,62.8720851 C372.565563,62.9062713 372.329138,63.0600639 372.176215,63.2956066 C371.629188,64.0855958 369.992781,65.4193436 365.163046,65.5424588 C361.646868,65.6514783 358.238639,64.2033795 355.706449,61.5245117 C353.17426,58.8456439 351.731183,55.1614214 351.702436,51.3021355 C351.679059,43.3406867 357.640253,37.0515525 364.793685,36.938697 C371.947118,36.8258414 377.739996,42.4583612 377.739996,50.240267 C377.739996,55.1802639 374.602771,57.4732842 370.825011,57.3860776 C369.618746,57.4732842 369.375622,56.9449149 369.539263,55.0930573 C369.670176,53.5541174 370.998002,47.2290747 371.465547,45.0130013 C371.556475,44.6364411 371.47889,44.2348796 371.256531,43.9311852 C371.034171,43.6274908 370.693504,43.4578101 370.338764,43.4740615 L370.259282,43.4740615 C369.748084,43.5415422 369.34584,43.9849972 369.286789,44.5461896 C369.244465,44.9034876 369.221048,45.2631766 369.216657,45.6234475 C368.32504,43.852456 366.637487,42.7407453 364.793685,42.7097214 C360.529678,42.796928 356.845427,47.0341423 356.672435,53.2104209 C356.672435,57.3552989 358.682877,59.7406556 362.142707,59.7406556 C364.210513,59.6904422 366.127707,58.5430763 367.285698,56.6627759 C367.285698,56.6627759 367.215566,59.3097525 370.109668,59.473906 Z M362.469989,57.6220484 C360.300582,57.6220484 359.010158,55.8573974 359.010158,53.0360077 C359.010158,48.1832174 361.983742,45.0950781 364.798361,45.0950781 C367.290374,45.0950781 368.258191,46.9469357 368.337673,49.4194991 C368.342349,53.4002235 366.009301,57.632308 362.469989,57.632308 L362.469989,57.6220484 Z" id="Shape" fill="#393939" fill-rule="nonzero" transform="translate(364.759788, 51.268792) rotate(90.000000) translate(-364.759788, -51.268792) "></path>
                <g id="Group" opacity="0.5" transform="translate(321.147912, 102.537732) rotate(90.000000) translate(-321.147912, -102.537732) translate(305.647912, 85.537732)" fill="url(#linearGradient-5)" fill-rule="nonzero">
                    <path d="M20.8208955,25.3274627 C27.5622388,25.3274627 30.6853731,21.3591045 30.6853731,16.0408955 C30.6853731,6.75432836 23.8607463,0.0811940299 15.3935821,0.0811940299 C6.90216285,0.0811940299 0.0185074627,7.63100961 0.0185074627,16.9441791 C0.0185074627,26.2573486 6.90216285,33.8071642 15.3935821,33.8071642 C18.5195001,33.7769333 21.5600397,32.6848399 24.0967164,30.681194 C24.3464973,30.4808452 24.5130453,30.1794472 24.559403,29.8438806 C24.6102204,29.5576048 24.5206965,29.2630421 24.3234328,29.0674627 C24.1195521,28.8834744 23.8559453,28.7989171 23.5938018,28.8334186 C23.3316583,28.8679201 23.093776,29.0184798 22.9353731,29.2501493 C22.3755224,30.0570149 20.7052239,31.4220896 15.7591045,31.5438806 C12.1662558,31.6460511 8.68622141,30.1630909 6.0987347,27.4272708 C3.511248,24.6914508 2.03263019,20.9314931 1.9941791,16.9898507 C1.97104478,8.87044776 8.06462687,2.42059701 15.4120896,2.33432836 C22.7595522,2.2480597 28.6495522,7.91641791 28.6495522,15.8632836 C28.6495522,20.9379104 25.4431343,23.2570149 21.5797015,23.1656716 C20.3443284,23.2570149 20.0991045,22.7140299 20.2656716,20.821194 C20.358209,19.2632836 21.7462687,12.7626866 22.2089552,10.5146269 C22.293192,10.1333072 22.2097698,9.73072597 21.9835367,9.42679577 C21.7573036,9.12286557 21.414364,8.95265605 21.0568657,8.96686567 L20.9735821,8.96686567 C20.4507146,9.03583414 20.039262,9.48920368 19.978806,10.0629851 C19.9363033,10.4282719 19.9131301,10.7959525 19.909403,11.1641791 C18.993877,9.3597628 17.2714508,8.226682 15.3889552,8.19044776 C11.0304478,8.28179104 7.25029851,12.6104478 7.08373134,18.9232836 C7.08373134,23.160597 9.1380597,25.5964179 12.6729851,25.5964179 C14.7898787,25.5437298 16.7515764,24.3667224 17.9337313,22.44 C17.9337313,22.44 17.8597015,25.1447761 20.8208955,25.3274627 Z M13.0061194,23.419403 C10.7852239,23.419403 9.47119403,21.6179104 9.47119403,18.7304478 C9.47119403,13.7725373 12.5156716,10.6110448 15.3889552,10.6110448 C17.9383582,10.6110448 18.9238806,12.5038806 19.0071642,15.0310448 C19.011791,19.1059701 16.6243284,23.419403 13.0061194,23.419403 Z" id="Shape"></path>
                </g>
                <path d="M327.006442,111.234044 C333.598821,111.234044 336.656562,107.350786 336.656562,102.14404 C336.656562,93.054035 329.980025,86.5289301 321.695135,86.5289301 C313.389561,86.5289301 306.656562,93.9162317 306.656562,103.02893 C306.656562,112.141628 313.389561,119.52893 321.695135,119.52893 C324.755015,119.494144 327.729712,118.418765 330.209122,116.45105 C330.458313,116.258919 330.626761,115.96506 330.676667,115.635412 C330.72638,115.355812 330.639534,115.068012 330.44757,114.876202 C330.248521,114.686633 329.985796,114.598037 329.724066,114.632223 C329.462337,114.66641 329.225912,114.820202 329.072989,115.055745 C328.525962,115.845734 326.889556,117.179482 322.05982,117.302597 C318.543642,117.411617 315.135413,115.963518 312.603223,113.28465 C310.071034,110.605782 308.627957,106.92156 308.59921,103.062274 C308.575833,95.100825 314.537027,88.8116909 321.690459,88.6988353 C328.843892,88.5859797 334.664822,94.1877207 334.664822,101.969627 C334.664822,106.909623 331.527598,109.202644 327.749838,109.115437 C326.543573,109.202644 326.300449,108.674274 326.46409,106.822417 C326.595002,105.283477 327.922829,98.9584342 328.390374,96.7423609 C328.481302,96.3658006 328.403717,95.9642391 328.181358,95.6605447 C327.958998,95.3568503 327.618331,95.1871697 327.263591,95.203421 L327.184109,95.203421 C326.672911,95.2709018 326.270667,95.7143568 326.211616,96.2755491 C326.169292,96.6328472 326.145875,96.9925361 326.141484,97.352807 C325.249866,95.5818155 323.562314,94.4701049 321.718512,94.4390809 C317.454505,94.5262875 313.770254,98.7635019 313.597262,104.93978 C313.597262,109.084658 315.607704,111.470015 319.067534,111.470015 C321.13534,111.419802 323.052534,110.272436 324.210525,108.392135 C324.210525,108.392135 324.112341,111.054501 327.006442,111.234044 Z M319.366763,109.382187 C317.197356,109.382187 315.906933,107.617536 315.906933,104.796146 C315.906933,99.9433557 318.880516,96.8552165 321.695135,96.8552165 C324.187148,96.8552165 325.154965,98.7070741 325.234448,101.179637 C325.239123,105.144972 322.906075,109.377057 319.366763,109.377057 L319.366763,109.382187 Z" id="Shape" fill="#393939" fill-rule="nonzero" transform="translate(321.656562, 103.028930) rotate(90.000000) translate(-321.656562, -103.028930) "></path>
                <g id="Group" opacity="0.5" transform="translate(281.372160, 115.733925) rotate(90.000000) translate(-281.372160, -115.733925) translate(265.372160, 98.733925)" fill="url(#linearGradient-6)" fill-rule="nonzero">
                    <path d="M21.6491262,25.3008571 C28.6604646,25.3008571 31.9117647,21.3471429 31.9117647,16.0722857 C31.9117647,6.84371429 24.8125533,0.174857143 16.0021313,0.174857143 C7.16950673,0.174857143 0.00924978687,7.69468248 0.00924978687,16.9708571 C0.00924978687,26.2470318 7.16950673,33.7668571 16.0021313,33.7668571 C19.2530207,33.7366083 22.4150707,32.6488934 25.0530477,30.6534286 C25.3173239,30.4574095 25.4956103,30.1581764 25.5479113,29.8228571 C25.6001644,29.5381416 25.5072554,29.2454176 25.302792,29.0505714 C25.0903683,28.8602534 24.8120519,28.7714786 24.5347267,28.8055809 C24.2574014,28.8396831 24.0061405,28.9935793 23.8413257,29.2302857 C23.2585891,30.0317143 21.5288789,31.3917143 16.3767477,31.5131429 C12.6356659,31.6241454 9.00913393,30.1510966 6.3127668,27.4252884 C3.61639967,24.6994802 2.0765661,20.949753 2.03957801,17.0194286 C2.01645354,8.91285714 8.35255754,2.51114286 15.9790068,2.41885714 C23.6054561,2.32657143 29.7473146,7.99 29.7473146,15.8925714 C29.7473146,20.9245714 26.4127664,23.256 22.393734,23.1782857 C21.1126385,23.2657143 20.8536445,22.7314286 21.006266,20.842 C21.1450128,19.2925714 22.5556053,12.8374286 23.0550938,10.5788571 C23.143797,10.1987216 23.0576012,9.79690003 22.8222566,9.49343357 C22.5869121,9.18996711 22.2296673,9.01999153 21.8572464,9.03428571 L21.7693734,9.03428571 C21.2246808,9.10253947 20.7959605,9.55479897 20.7333973,10.1271429 C20.6885463,10.4912376 20.6638388,10.8577577 20.659399,11.2248571 C19.706604,9.42725309 17.9145457,8.29839292 15.9558824,8.262 C11.4234868,8.34942857 7.48770247,12.6625714 7.31658142,18.9477143 C7.31658142,23.1685714 9.45328218,25.5922857 13.1300725,25.5922857 C15.3571327,25.5503943 17.4227599,24.3631477 18.6568201,22.4157143 C18.6568201,22.4157143 18.5689471,25.1211429 21.6491262,25.3008571 Z M13.5231884,23.4162857 C11.2107417,23.4162857 9.82327366,21.6191429 9.82327366,18.7437143 C9.82327366,13.804 12.9867008,10.6614286 15.9790068,10.6614286 C18.6290708,10.6614286 19.6789216,12.546 19.7436701,15.062 C19.7667945,19.1031429 17.2878517,23.4114286 13.5231884,23.4114286 L13.5231884,23.4162857 Z" id="Shape"></path>
                </g>
                <path d="M286.204663,122.947918 C292.797042,122.947918 295.854783,119.064659 295.854783,113.857913 C295.854783,104.767908 289.178246,98.2428034 280.893356,98.2428034 C272.587782,98.2428034 265.854783,105.630105 265.854783,114.742803 C265.854783,123.855502 272.587782,131.242803 280.893356,131.242803 C283.953236,131.208017 286.927933,130.132638 289.407343,128.164924 C289.656534,127.972793 289.824982,127.678933 289.874888,127.349286 C289.924601,127.069685 289.837755,126.781886 289.645791,126.590075 C289.446742,126.400506 289.184017,126.311911 288.922287,126.346097 C288.660558,126.380283 288.424133,126.534076 288.27121,126.769618 C287.724183,127.559607 286.087776,128.893355 281.258041,129.01647 C277.741863,129.12549 274.333634,127.677391 271.801444,124.998523 C269.269255,122.319656 267.826178,118.635433 267.797431,114.776147 C267.774054,106.814698 273.735248,100.525564 280.88868,100.412709 C288.042113,100.299853 293.834991,105.881075 293.834991,113.647591 C293.834991,118.587588 290.697766,120.880608 286.920006,120.793402 C285.713741,120.880608 285.470618,120.352239 285.634258,118.500382 C285.765171,116.961442 287.092997,110.636399 287.560542,108.420326 C287.65147,108.043765 287.573885,107.642204 287.351526,107.338509 C287.129167,107.034815 286.788499,106.865134 286.433759,106.881386 L286.354277,106.881386 C285.843079,106.948866 285.440836,107.392322 285.381784,107.953514 C285.33946,108.310812 285.316044,108.670501 285.311652,109.030772 C284.420035,107.25978 282.732482,106.14807 280.88868,106.117046 C276.624674,106.204252 272.940422,110.441467 272.767431,116.617745 C272.767431,120.762623 274.777872,123.14798 278.237702,123.14798 C280.305508,123.097766 282.222702,121.950401 283.380693,120.0701 C283.380693,120.0701 283.287184,122.773504 286.204663,122.947918 Z M278.564984,121.09606 C276.395577,121.09606 275.105154,119.331409 275.105154,116.510019 C275.105154,111.657229 278.078737,108.56909 280.893356,108.56909 C283.385369,108.56909 284.353186,110.420947 284.432669,112.893511 C284.413967,116.863976 282.080919,121.09606 278.546282,121.09606 L278.564984,121.09606 Z" id="Shape" fill="#393939" fill-rule="nonzero" transform="translate(280.854783, 114.742803) rotate(90.000000) translate(-280.854783, -114.742803) "></path>
                <g id="Group" opacity="0.5" transform="translate(282.314590, 169.725700) rotate(90.000000) translate(-282.314590, -169.725700) translate(266.314590, 152.725700)" fill="url(#linearGradient-6)" fill-rule="nonzero">
                    <path d="M21.6491262,25.2717143 C28.6604646,25.2717143 31.9117647,21.318 31.9117647,16.0431429 C31.9117647,6.81457143 24.8125533,0.145714286 16.0021313,0.145714286 C7.16950673,0.145714286 0.00924978687,7.66553963 0.00924978687,16.9417143 C0.00924978687,26.2178889 7.16950673,33.7377143 16.0021313,33.7377143 C19.2530207,33.7074655 22.4150707,32.6197506 25.0530477,30.6242857 C25.3173239,30.4282666 25.4956103,30.1290335 25.5479113,29.7937143 C25.6001644,29.5089988 25.5072554,29.2162747 25.302792,29.0214286 C25.0903683,28.8311106 24.8120519,28.7423357 24.5347267,28.776438 C24.2574014,28.8105403 24.0061405,28.9644364 23.8413257,29.2011429 C23.2585891,30.0025714 21.5288789,31.3625714 16.3767477,31.484 C12.6356659,31.5950025 9.00913393,30.1219538 6.3127668,27.3961456 C3.61639967,24.6703373 2.0765661,20.9206101 2.03957801,16.9902857 C2.01645354,8.88371429 8.35255754,2.482 15.9790068,2.38971429 C23.6054561,2.29742857 29.7473146,7.96085714 29.7473146,15.8634286 C29.7473146,20.8954286 26.4127664,23.2268571 22.393734,23.1491429 C21.1126385,23.2365714 20.8536445,22.7022857 21.006266,20.8128571 C21.1450128,19.2634286 22.5556053,12.8082857 23.0550938,10.5497143 C23.143797,10.1695787 23.0576012,9.76775717 22.8222566,9.46429071 C22.5869121,9.16082425 22.2296673,8.99084867 21.8572464,9.00514286 L21.7693734,9.00514286 C21.2246808,9.07339661 20.7959605,9.52565611 20.7333973,10.098 C20.6885463,10.4620948 20.6638388,10.8286149 20.659399,11.1957143 C19.706604,9.39811024 17.9145457,8.26925007 15.9558824,8.23285714 C11.4234868,8.32028571 7.48770247,12.6334286 7.31658142,18.9185714 C7.31658142,23.1394286 9.45328218,25.5631429 13.1300725,25.5631429 C15.3519383,25.527809 17.4165044,24.3520588 18.6568201,22.4157143 C18.6568201,22.4157143 18.5689471,25.092 21.6491262,25.2717143 Z M13.5231884,23.3871429 C11.2107417,23.3871429 9.82327366,21.59 9.82327366,18.7145714 C9.82327366,13.7748571 12.9867008,10.6322857 15.9790068,10.6322857 C18.6290708,10.6322857 19.6789216,12.5168571 19.7436701,15.0328571 C19.7667945,19.074 17.2878517,23.3871429 13.5231884,23.3871429 Z" id="Shape"></path>
                </g>
                <path d="M286.164697,177.956993 C292.757076,177.956993 295.814818,174.073735 295.814818,168.866989 C295.814818,159.776984 289.138281,153.251879 280.853391,153.251879 C272.547816,153.251879 265.814818,160.639181 265.814818,169.751879 C265.814818,178.864577 272.547816,186.251879 280.853391,186.251879 C283.91327,186.217093 286.887968,185.141714 289.367378,183.173999 C289.616568,182.981868 289.785016,182.688008 289.834922,182.358361 C289.884635,182.078761 289.79779,181.790961 289.605826,181.599151 C289.406776,181.409582 289.144052,181.320986 288.882322,181.355172 C288.620592,181.389359 288.384168,181.543151 288.231244,181.778694 C287.684217,182.568683 286.047811,183.902431 281.218075,184.025546 C277.701898,184.134566 274.293668,182.686467 271.761479,180.007599 C269.22929,177.328731 267.786213,173.644509 267.757466,169.785223 C267.734089,161.823774 273.695283,155.53464 280.848715,155.421784 C288.002148,155.308929 293.795025,160.89015 293.795025,168.656667 C293.795025,173.596664 290.657801,175.889684 286.880041,175.802478 C285.673775,175.889684 285.430652,175.361315 285.594293,173.509457 C285.725205,171.970517 287.053032,165.645475 287.520577,163.429401 C287.611505,163.052841 287.53392,162.651279 287.31156,162.347585 C287.089201,162.043891 286.748534,161.87421 286.393794,161.890461 L286.314312,161.890461 C285.803114,161.957942 285.40087,162.401397 285.341819,162.962589 C285.299495,163.319888 285.276078,163.679576 285.271687,164.039847 C284.361961,162.289835 282.670865,161.204728 280.834689,161.192809 C276.570682,161.280015 272.88643,165.51723 272.713439,171.693508 C272.713439,175.838386 274.723881,178.223743 278.183711,178.223743 C280.251517,178.17353 282.16871,177.026164 283.326702,175.145863 C283.326702,175.145863 283.247219,177.77745 286.164697,177.956993 Z M278.525018,176.105136 C276.355611,176.105136 275.065188,174.340485 275.065188,171.519095 C275.065188,166.666305 278.038772,163.578165 280.853391,163.578165 C283.345403,163.578165 284.313221,165.430023 284.392703,167.902586 C284.374001,171.867921 282.040954,176.105136 278.506317,176.105136 L278.525018,176.105136 Z" id="Shape" fill="#393939" fill-rule="nonzero" transform="translate(280.814818, 169.751879) rotate(90.000000) translate(-280.814818, -169.751879) "></path>
                <g id="Group" opacity="0.5" transform="translate(350.319155, 198.043170) rotate(90.000000) translate(-350.319155, -198.043170) translate(333.819155, 180.543170)" fill="url(#linearGradient-7)" fill-rule="nonzero">
                    <path d="M22.00968,26.0035211 C29.06904,26.0035211 32.34,21.9612676 32.34,16.543662 C32.34,7.08380282 25.19286,0.276056338 16.32708,0.276056338 C7.43490893,0.276056338 0.22638,7.96761516 0.22638,17.4556338 C0.22638,26.9436524 7.43490893,34.6352113 16.32708,34.6352113 C19.6009988,34.6048643 22.7855882,33.4922962 25.44234,31.4507042 C25.7093925,31.2496115 25.8892525,30.9421968 25.9413,30.5978873 C25.9948645,30.3049198 25.90011,30.0034807 25.69182,29.8042254 C25.4774736,29.6111417 25.1976205,29.5216757 24.9190845,29.5571902 C24.6405485,29.5927047 24.3883321,29.7500117 24.22266,29.9915493 C23.63592,30.8098592 21.88494,32.2049296 16.71054,32.328169 C12.9511159,32.4313818 9.31002968,30.9210482 6.60307352,28.1355613 C3.89611735,25.3500744 2.34959223,21.5223004 2.31,17.5098592 C2.28228,9.21830986 8.66712,2.67183099 16.34556,2.57816901 C24.024,2.48450704 30.20556,8.27183099 30.20556,16.3809859 C30.20556,21.5274648 26.84682,23.9133803 22.81356,23.8197183 C21.51996,23.9133803 21.26586,23.3612676 21.42756,21.4288732 C21.57078,19.8464789 22.98912,13.2408451 23.4927,10.9338028 C23.5811842,10.5453426 23.4940379,10.1350857 23.2572318,9.82529375 C23.0204257,9.51550183 22.6613004,9.34194227 22.28688,9.35633803 L22.1991,9.35633803 C21.6499148,9.42573224 21.217591,9.88906638 21.15498,10.4753521 C21.110153,10.8465254 21.0854718,11.2201533 21.08106,11.5943662 C20.1201573,9.75715035 18.3170189,8.6027724 16.34556,8.56267606 C11.781,8.65633803 7.82166,13.0633803 7.65072,19.4964789 C7.65072,23.8147887 9.80364,26.2943662 13.50426,26.2943662 C15.721657,26.2416988 17.7769405,25.0431751 19.01592,23.0802817 C19.01592,23.0802817 18.90966,25.8211268 22.00968,26.0035211 Z M13.83228,24.0760563 C11.52228,24.0760563 10.13628,22.2373239 10.13628,19.2992958 C10.13628,14.2464789 13.32408,11.0323944 16.33632,11.0323944 C19.00668,11.0323944 20.03232,12.9598592 20.12472,15.5330986 C20.11548,19.6640845 17.61606,24.0760563 13.82766,24.0760563 L13.83228,24.0760563 Z" id="Shape"></path>
                </g>
                <path d="M354.677913,206.765661 C361.270292,206.765661 364.328034,202.882402 364.328034,197.675656 C364.328034,188.585651 357.651496,182.060546 349.366606,182.060546 C341.061032,182.060546 334.328034,189.447848 334.328034,198.560546 C334.328034,207.673245 341.061032,215.060546 349.366606,215.060546 C352.426486,215.02576 355.401184,213.950381 357.880593,211.982667 C358.129784,211.790535 358.298232,211.496676 358.348138,211.167028 C358.397851,210.887428 358.311005,210.599628 358.119041,210.407818 C357.919992,210.218249 357.657267,210.129653 357.395538,210.16384 C357.133808,210.198026 356.897383,210.351818 356.74446,210.587361 C356.197433,211.37735 354.561027,212.711098 349.731291,212.834213 C346.215113,212.943233 342.806884,211.495134 340.274695,208.816266 C337.742505,206.137398 336.299428,202.453176 336.270681,198.59389 C336.247304,190.632441 342.208498,184.343307 349.361931,184.230451 C356.515363,184.117596 362.303565,189.739856 362.303565,197.501243 C362.303565,202.44124 359.166341,204.73426 355.388581,204.647053 C354.182315,204.73426 353.939192,204.205891 354.102833,202.354033 C354.233745,200.815093 355.561572,194.49005 356.029117,192.273977 C356.120045,191.897417 356.04246,191.495855 355.8201,191.192161 C355.597741,190.888466 355.257074,190.718786 354.902334,190.735037 L354.822852,190.735037 C354.311654,190.802518 353.90941,191.245973 353.850359,191.807165 C353.808035,192.164463 353.784618,192.524152 353.780227,192.884423 C352.888609,191.113432 351.201057,190.001721 349.357255,189.970697 C345.093248,190.057904 341.408997,194.295118 341.236005,200.471397 C341.236005,204.616275 343.246447,207.001631 346.706277,207.001631 C348.774083,206.951418 350.691277,205.804052 351.849268,203.923752 C351.849268,203.923752 351.783812,206.591247 354.677913,206.765661 Z M347.038234,204.913803 C344.868827,204.913803 343.578404,203.149152 343.578404,200.327762 C343.578404,195.474972 346.551987,192.386833 349.366606,192.386833 C351.858619,192.386833 352.826436,194.23869 352.905919,196.711254 C352.910594,200.681718 350.577547,204.913803 347.038234,204.913803 Z" id="Shape" fill="#393939" fill-rule="nonzero" transform="translate(349.328034, 198.560546) rotate(90.000000) translate(-349.328034, -198.560546) "></path>
                <path d="M330.392537,155.413312 C334.89029,155.413312 336.97614,152.823105 336.97614,149.356729 C336.97614,143.300146 332.420322,138.943236 326.770215,138.943236 C321.28878,139.217419 316.97614,144.061066 316.97614,149.943236 C316.97614,155.825406 321.28878,160.669053 326.770215,160.943236 C328.855832,160.923018 330.884352,160.210466 332.57665,158.903628 C332.746612,158.774891 332.860945,158.578108 332.89377,158.357817 C332.92869,158.170941 332.869306,157.978153 332.737443,157.850309 C332.600986,157.725553 332.422131,157.667539 332.244041,157.690265 C332.065951,157.712992 331.904801,157.814395 331.799481,157.970004 C331.428762,158.496664 330.31214,159.406348 327.011406,159.46859 C322.102527,159.539984 318.069102,155.332143 318.002499,150.070113 C317.935896,144.808083 321.861337,140.484489 326.770215,140.413095 C331.652087,140.355641 335.604928,144.061408 335.604928,149.237034 C335.604928,152.531049 333.465481,154.058361 330.883851,154.024846 C330.062017,154.0823 329.896757,153.73279 329.990553,152.497534 C330.079883,151.482518 330.98658,147.254879 331.3037,145.794596 C331.359651,145.545955 331.303985,145.283572 331.153225,145.085323 C331.002464,144.887074 330.773935,144.775741 330.535465,144.784368 L330.481867,144.784368 C330.132718,144.828344 329.857385,145.123484 329.81636,145.497752 C329.788561,145.736018 329.773647,145.97581 329.771695,146.215924 C329.159981,145.038504 328.00942,144.299598 326.752349,144.276859 C323.844666,144.334313 321.3211,147.149547 321.209438,151.276642 C321.209438,154.03921 322.580649,155.628764 324.938955,155.628764 C326.351644,155.594408 327.660758,154.826702 328.449615,153.570004 C328.449615,153.570004 328.418349,155.293617 330.392537,155.413312 Z M325.180145,154.178056 C323.697271,154.178056 322.82184,153.000254 322.82184,151.118644 C322.82184,147.882083 324.854092,145.823323 326.774682,145.823323 C328.476414,145.823323 329.132987,147.058579 329.191052,148.696011 C329.186585,151.353247 327.596515,154.178056 325.180145,154.178056 Z" id="Shape" fill="#393939" fill-rule="nonzero" opacity="0.5" transform="translate(326.976140, 149.943236) rotate(90.000000) translate(-326.976140, -149.943236) "></path>
                <path d="M241.737688,175.963683 C246.235441,175.963683 248.321291,173.373476 248.321291,169.907099 C248.321291,163.850516 243.765473,159.493606 238.115366,159.493606 C232.633931,159.767789 228.321291,164.611436 228.321291,170.493606 C228.321291,176.375777 232.633931,181.219423 238.115366,181.493606 C240.200983,181.473388 242.229503,180.760836 243.9218,179.453998 C244.091763,179.325262 244.206096,179.128478 244.238921,178.908187 C244.273841,178.721311 244.214457,178.528524 244.082594,178.400679 C243.946136,178.275924 243.767282,178.217909 243.589192,178.240636 C243.411102,178.263362 243.249952,178.364765 243.144631,178.520375 C242.773913,179.047034 241.657291,179.956718 238.356556,180.01896 C233.447678,180.090354 229.414253,175.882513 229.34765,170.620483 C229.281047,165.358454 233.206487,161.034859 238.115366,160.963465 C242.997237,160.906011 246.950079,164.611778 246.950079,169.787404 C246.950079,173.081419 244.810631,174.608731 242.229001,174.575217 C241.407168,174.632671 241.241908,174.28316 241.335704,173.047904 C241.425034,172.032888 242.331731,167.805249 242.648851,166.344967 C242.704801,166.096326 242.649135,165.833943 242.498375,165.635694 C242.347615,165.437444 242.119086,165.326111 241.880615,165.334738 L241.827018,165.334738 C241.477868,165.378714 241.202536,165.673855 241.161511,166.048122 C241.133711,166.286389 241.118798,166.52618 241.116846,166.766294 C240.505132,165.588874 239.354571,164.849968 238.0975,164.82723 C235.189816,164.884684 232.666251,167.699918 232.554589,171.827012 C232.554589,174.58958 233.9258,176.179134 236.284106,176.179134 C237.696794,176.144778 239.005909,175.377073 239.794766,174.120375 C239.794766,174.120375 239.7635,175.843987 241.737688,175.963683 Z M236.525296,174.728427 C235.042422,174.728427 234.166991,173.550625 234.166991,171.669014 C234.166991,168.432453 236.199243,166.373693 238.119833,166.373693 C239.821564,166.373693 240.478138,167.608949 240.536203,169.246381 C240.531736,171.903617 238.941666,174.728427 236.525296,174.728427 Z" id="Shape" fill="#393939" fill-rule="nonzero" opacity="0.5" transform="translate(238.321291, 170.493606) rotate(90.000000) translate(-238.321291, -170.493606) "></path>
                <path d="M230.220851,89.1514571 C234.718605,89.1514571 236.804455,86.5612503 236.804455,83.0948739 C236.804455,77.0382906 232.248637,72.6813809 226.59853,72.6813809 C221.117095,72.955564 216.804455,77.7992108 216.804455,83.6813809 C216.804455,89.5635511 221.117095,94.4071979 226.59853,94.6813809 C228.684147,94.661163 230.712667,93.9486109 232.404964,92.6417727 C232.574926,92.5130364 232.689259,92.3162525 232.722085,92.095962 C232.757005,91.9090855 232.697621,91.7162985 232.565758,91.5884538 C232.4293,91.4636983 232.250446,91.4056837 232.072356,91.4284102 C231.894266,91.4511367 231.733116,91.5525398 231.627795,91.7081492 C231.257077,92.2348086 230.140455,93.144493 226.83972,93.2067346 C223.664232,93.2529186 220.706975,91.479616 219.081919,88.5548127 C217.456863,85.6300094 217.410893,81.9980525 218.961324,79.0270652 C220.511756,76.0560778 223.423042,74.1974235 226.59853,74.1512395 C231.480401,74.0937857 235.433243,77.7995529 235.433243,82.9751785 C235.433243,86.2691938 233.293795,87.7965061 230.712165,87.7629914 C229.890331,87.8204451 229.725071,87.4709348 229.818868,86.2356791 C229.908197,85.2206628 230.814894,80.993024 231.132015,79.5327411 C231.187965,79.2841004 231.132299,79.0217173 230.981539,78.8234681 C230.830779,78.6252189 230.60225,78.5138857 230.363779,78.5225126 L230.310181,78.5225126 C229.961032,78.5664889 229.685699,78.8616294 229.644675,79.2358967 C229.616875,79.4741634 229.601962,79.7139549 229.60001,79.9540686 C228.988295,78.7766486 227.837734,78.037743 226.580664,78.0150044 C223.67298,78.0724582 221.149414,80.8876921 221.037752,85.0147868 C221.037752,87.7773548 222.408964,89.3669087 224.76727,89.3669087 C226.179958,89.3325526 227.489073,88.5648472 228.277929,87.3081492 C228.277929,87.3081492 228.246664,89.0317618 230.220851,89.1514571 Z M225.00846,87.9162014 C223.525586,87.9162014 222.650154,86.7383994 222.650154,84.856789 C222.650154,81.6202275 224.682406,79.561468 226.602996,79.561468 C228.304728,79.561468 228.961302,80.7967237 229.019366,82.4341557 C229.0149,85.0913918 227.420364,87.9162014 225.00846,87.9162014 Z" id="Shape" fill="#393939" fill-rule="nonzero" opacity="0.5" transform="translate(226.804455, 83.681381) rotate(90.000000) translate(-226.804455, -83.681381) "></path>
                <path d="M405.28146,91.0965244 C409.779214,91.0965244 411.865063,88.5063177 411.865063,85.0399412 C411.865063,78.983358 407.309246,74.6264483 401.659138,74.6264483 C396.177703,74.9006313 391.865063,79.7442781 391.865063,85.6264483 C391.865063,91.5086184 396.177703,96.3522652 401.659138,96.6264483 C403.744755,96.6062303 405.773276,95.8936782 407.465573,94.58684 C407.635535,94.4581038 407.749868,94.2613199 407.782693,94.0410293 C407.817614,93.8541529 407.75823,93.6613658 407.626366,93.5335212 C407.489909,93.4087656 407.311055,93.3507511 407.132964,93.3734775 C406.954874,93.396204 406.793725,93.4976071 406.688404,93.6532165 C406.317685,94.1798759 405.201063,95.0895604 401.900329,95.1518019 C396.99145,95.2231963 392.958025,91.015355 392.891423,85.7533253 C392.82482,80.4912956 396.75026,76.1677012 401.659138,76.0963068 C406.54101,76.0388531 410.493852,79.7446202 410.493852,84.9202459 C410.493852,88.2142611 408.354404,89.7415734 405.772774,89.7080587 C404.95094,89.7655125 404.78568,89.4160021 404.879476,88.1807464 C404.968806,87.1657301 405.875503,82.9380914 406.192624,81.4778084 C406.248574,81.2291677 406.192908,80.9667847 406.042148,80.7685355 C405.891388,80.5702863 405.662858,80.4589531 405.424388,80.4675799 L405.37079,80.4675799 C405.021641,80.5115563 404.746308,80.8066967 404.705283,81.1809641 C404.677484,81.4192307 404.662571,81.6590222 404.660618,81.899136 C404.048904,80.7217159 402.898343,79.9828104 401.641272,79.9600718 C398.733589,80.0175255 396.210023,82.8327595 396.098361,86.9598542 C396.098361,89.7224222 397.469573,91.311976 399.827878,91.311976 C401.240567,91.2776199 402.549681,90.5099145 403.338538,89.2532165 C403.338538,89.2532165 403.289407,90.9816169 405.28146,91.0965244 Z M400.069069,89.8612687 C398.586195,89.8612687 397.710763,88.6834668 397.710763,86.8018563 C397.710763,83.5652948 399.743015,81.5065353 401.663605,81.5065353 C403.365337,81.5065353 404.021911,82.741791 404.079975,84.379223 C404.057642,87.041247 402.463106,89.8612687 400.051203,89.8612687 L400.069069,89.8612687 Z" id="Shape" fill="#393939" fill-rule="nonzero" opacity="0.5" transform="translate(401.865063, 85.626448) rotate(90.000000) translate(-401.865063, -85.626448) "></path>
                <path d="M239.19317,113.989843 C241.64425,113.989843 242.782873,112.590698 242.782873,110.683197 C242.782873,107.376551 240.301371,105.002668 237.220137,105.002668 C234.193012,105.093248 231.782873,107.752827 231.782873,111.002668 C231.782873,114.25251 234.193012,116.912089 237.220137,117.002668 C238.356283,116.992414 239.461561,116.604638 240.383943,115.89268 C240.475993,115.821371 240.538386,115.714238 240.557779,115.594196 C240.576048,115.492443 240.543021,115.387887 240.470861,115.319031 C240.396237,115.250839 240.298499,115.219123 240.201169,115.231515 C240.103839,115.243908 240.01573,115.299286 239.958046,115.384324 C239.753789,115.668817 239.145365,116.158518 237.350514,116.200492 C235.589833,116.276516 233.929474,115.320832 233.014498,113.704731 C232.099521,112.08863 232.074165,110.066876 232.948281,108.424934 C233.822397,106.782992 235.458188,105.7797 237.220137,105.804845 C239.87982,105.772198 242.03538,107.796295 242.03538,110.617904 C242.03538,112.413473 240.870682,113.248296 239.462615,113.215649 C239.028026,113.248296 238.923725,113.05708 238.984567,112.380826 C239.032372,111.825832 239.527803,109.521907 239.701639,108.715066 C239.725093,108.57762 239.689886,108.43613 239.605705,108.329529 C239.521524,108.222929 239.397239,108.16245 239.26705,108.164736 L239.236629,108.164736 C239.04971,108.197062 238.903801,108.355531 238.87592,108.556497 C238.860182,108.686433 238.851476,108.817239 238.849845,108.948257 C238.517085,108.306526 237.891316,107.903242 237.207099,107.889571 C235.620851,107.922218 234.24755,109.461277 234.186708,111.709237 C234.186708,113.215649 234.9342,114.083119 236.220583,114.083119 C236.990132,114.063491 237.702993,113.644474 238.132773,112.95914 C238.134005,113.251188 238.249602,113.529223 238.451307,113.725281 C238.653012,113.921338 238.922237,114.017349 239.19317,113.989843 Z M236.35096,113.318253 C235.542625,113.318253 235.047194,112.674647 235.047194,111.648607 C235.047194,109.885684 236.155395,108.761705 237.220137,108.761705 C238.145811,108.761705 238.523903,109.433294 238.523903,110.333411 C238.536941,111.77453 237.667764,113.318253 236.355306,113.318253 L236.35096,113.318253 Z" id="Shape" fill="#393939" fill-rule="nonzero" opacity="0.3" transform="translate(237.282873, 111.002668) rotate(90.000000) translate(-237.282873, -111.002668) "></path>
                <path d="M268.677421,141.479459 C271.128501,141.479459 272.267123,140.080314 272.267123,138.172813 C272.267123,134.866167 269.785622,132.492284 266.704388,132.492284 C263.677262,132.582864 261.267123,135.242443 261.267123,138.492284 C261.267123,141.742125 263.677262,144.401704 266.704388,144.492284 C267.840534,144.482029 268.945812,144.094254 269.868194,143.382296 C269.960243,143.310987 270.022637,143.203854 270.042029,143.083812 C270.060298,142.982059 270.027272,142.877502 269.955111,142.808646 C269.880487,142.740455 269.78275,142.708738 269.685419,142.721131 C269.588089,142.733523 269.49998,142.788902 269.442297,142.87394 C269.23804,143.158433 268.629616,143.648133 266.834764,143.690108 C265.074084,143.766132 263.413725,142.810448 262.498748,141.194347 C261.583772,139.578246 261.558416,137.556492 262.432532,135.91455 C263.306648,134.272608 264.942438,133.269316 266.704388,133.294461 C269.364071,133.261814 271.519631,135.28591 271.519631,138.107519 C271.519631,139.903089 270.354933,140.737912 268.946866,140.705265 C268.512277,140.737912 268.407975,140.546695 268.468818,139.870442 C268.516623,139.315448 269.012054,137.011522 269.185889,136.204682 C269.209344,136.067236 269.174137,135.925746 269.089955,135.819145 C269.005774,135.712544 268.881489,135.652066 268.751301,135.654352 L268.720879,135.654352 C268.533961,135.686677 268.388052,135.845147 268.360171,136.046112 C268.344432,136.176049 268.335726,136.306855 268.334095,136.437873 C268.001336,135.796142 267.375567,135.392857 266.69135,135.379187 C265.105101,135.411833 263.731801,136.950893 263.670958,139.198852 C263.670958,140.705265 264.418451,141.572735 265.704834,141.572735 C266.474383,141.553106 267.187243,141.134089 267.617024,140.448755 C267.618255,140.740804 267.733852,141.018839 267.935557,141.214896 C268.137263,141.410954 268.406488,141.506964 268.677421,141.479459 Z M265.83521,140.807869 C265.026875,140.807869 264.531444,140.164262 264.531444,139.138223 C264.531444,137.3753 265.639645,136.25132 266.704388,136.25132 C267.630062,136.25132 268.008154,136.92291 268.008154,137.823026 C268.021192,139.264146 267.15636,140.803205 265.839556,140.803205 L265.83521,140.807869 Z" id="Shape" fill="#393939" fill-rule="nonzero" opacity="0.3" transform="translate(266.767123, 138.492284) rotate(90.000000) translate(-266.767123, -138.492284) "></path>
                <path d="M357.122841,108.930916 C359.573921,108.930916 360.712544,107.531771 360.712544,105.62427 C360.712544,102.317624 358.231042,99.9437414 355.149808,99.9437414 C352.122683,100.034321 349.712544,102.6939 349.712544,105.943741 C349.712544,109.193583 352.122683,111.853162 355.149808,111.943741 C356.285954,111.933487 357.391232,111.545711 358.313614,110.833753 C358.405664,110.762444 358.468057,110.655311 358.487449,110.535269 C358.505719,110.433516 358.472692,110.32896 358.400532,110.260104 C358.325908,110.191912 358.22817,110.160196 358.13084,110.172588 C358.033509,110.184981 357.945401,110.240359 357.887717,110.325397 C357.68346,110.60989 357.075036,111.099591 355.280185,111.141565 C353.519504,111.217589 351.859145,110.261905 350.944168,108.645804 C350.029192,107.029703 350.003836,105.007949 350.877952,103.366007 C351.752068,101.724065 353.387858,100.720773 355.149808,100.745918 C357.809491,100.713271 359.965051,102.737368 359.965051,105.558977 C359.965051,107.354546 358.800353,108.189369 357.392286,108.156722 C356.957697,108.189369 356.853396,107.998153 356.914238,107.321899 C356.962043,106.766905 357.457474,104.46298 357.63131,103.656139 C357.654764,103.518693 357.619557,103.377203 357.535376,103.270602 C357.451194,103.164002 357.32691,103.103523 357.196721,103.105809 L357.1663,103.105809 C356.979381,103.138135 356.833472,103.296604 356.805591,103.49757 C356.789853,103.627506 356.781146,103.758312 356.779516,103.88933 C356.446756,103.247599 355.820987,102.844315 355.13677,102.830644 C353.550521,102.863291 352.177221,104.40235 352.116379,106.65031 C352.116379,108.156722 352.863871,109.024192 354.150254,109.024192 C354.919803,109.004564 355.632664,108.585546 356.062444,107.900212 C356.063675,108.192261 356.179272,108.470296 356.380978,108.666354 C356.582683,108.862411 356.851908,108.958422 357.122841,108.930916 Z M354.280631,108.259326 C353.472295,108.259326 352.976864,107.61572 352.976864,106.58968 C352.976864,104.826757 354.085066,103.702778 355.149808,103.702778 C356.075482,103.702778 356.453574,104.374367 356.453574,105.274484 C356.466612,106.729595 355.60178,108.268654 354.284976,108.268654 L354.280631,108.259326 Z" id="Shape" fill="#393939" fill-rule="nonzero" opacity="0.3" transform="translate(355.212544, 105.943741) rotate(90.000000) translate(-355.212544, -105.943741) "></path>
                <path d="M298.625555,80.9475724 C301.076635,80.9475724 302.215258,79.5484274 302.215258,77.6409264 C302.215258,74.3342805 299.733756,71.9603978 296.652522,71.9603978 C293.625397,72.0509775 291.215258,74.7105565 291.215258,77.9603978 C291.215258,81.2102392 293.625397,83.8698182 296.652522,83.9603978 C297.788668,83.9501429 298.893946,83.5623677 299.816328,82.8504095 C299.908377,82.7791004 299.970771,82.6719674 299.990163,82.5519252 C300.008433,82.4501725 299.975406,82.3456162 299.903246,82.2767601 C299.828621,82.2085682 299.730884,82.1768522 299.633554,82.1892446 C299.536223,82.201637 299.448114,82.2570157 299.390431,82.3420535 C299.186174,82.6265463 298.57775,83.116247 296.782898,83.1582214 C295.022218,83.2342452 293.361859,82.2785619 292.446882,80.6624607 C291.531906,79.0463595 291.50655,77.0246054 292.380666,75.3826633 C293.254782,73.7407213 294.890572,72.7374298 296.652522,72.7625743 C299.312205,72.7299276 301.467765,74.754024 301.467765,77.575633 C301.467765,79.3712024 300.303067,80.2060255 298.895,80.1733788 C298.460411,80.2060255 298.35611,80.014809 298.416952,79.3385556 C298.464757,78.7835615 298.960188,76.4796361 299.134023,75.6727958 C299.157478,75.5353498 299.122271,75.3938596 299.03809,75.2872589 C298.953908,75.1806581 298.829624,75.1201798 298.699435,75.1224655 L298.669014,75.1224655 C298.482095,75.154791 298.336186,75.3132605 298.308305,75.5142261 C298.292567,75.6441625 298.28386,75.7749688 298.28223,75.9059867 C297.94947,75.2642555 297.323701,74.8609711 296.639484,74.8473003 C295.053235,74.879947 293.679935,76.4190065 293.619093,78.6669661 C293.619093,80.1733788 294.366585,81.0408487 295.652968,81.0408487 C296.422517,81.0212202 297.135378,80.6022029 297.565158,79.9168689 C297.566389,80.2089173 297.681986,80.4869527 297.883692,80.68301 C298.085397,80.8790673 298.354622,80.9750779 298.625555,80.9475724 Z M295.783344,80.2759828 C294.975009,80.2759828 294.479578,79.6323761 294.479578,78.6063364 C294.479578,76.8434138 295.587779,75.719434 296.652522,75.719434 C297.578196,75.719434 297.956288,76.3910236 297.956288,77.2911402 C297.96498,78.7322595 297.100148,80.271319 295.783344,80.271319 L295.783344,80.2759828 Z" id="Shape" fill="#393939" fill-rule="nonzero" opacity="0.3" transform="translate(296.715258, 77.960398) rotate(90.000000) translate(-296.715258, -77.960398) "></path>
                <path d="M329.699501,58.4106333 C334.197255,58.4106333 336.283104,55.8204265 336.283104,52.35405 C336.283104,46.2974668 331.727287,41.9405571 326.077179,41.9405571 C320.595744,42.2147402 316.283104,47.058387 316.283104,52.9405571 C316.283104,58.8227273 320.595744,63.6663741 326.077179,63.9405571 C328.162796,63.9203392 330.191317,63.2077871 331.883614,61.9009489 C332.053576,61.7722126 332.167909,61.5754287 332.200734,61.3551382 C332.235655,61.1682617 332.176271,60.9754747 332.044407,60.84763 C331.90795,60.7228745 331.729096,60.6648599 331.551005,60.6875864 C331.372915,60.7103129 331.211766,60.811716 331.106445,60.9673253 C330.735726,61.4939848 329.619104,62.4036692 326.31837,62.4659108 C321.409491,62.5373051 317.376066,58.3294638 317.309464,53.0674342 C317.242861,47.8054045 321.168301,43.48181 326.077179,43.4104157 C330.959051,43.3529619 334.911893,47.058729 334.911893,52.2343547 C334.911893,55.52837 332.772445,57.0556823 330.190815,57.0221676 C329.368981,57.0796213 329.203721,56.730111 329.297517,55.4948553 C329.386847,54.479839 330.293544,50.2522002 330.610665,48.7919173 C330.666615,48.5432766 330.610949,48.2808935 330.460189,48.0826443 C330.309429,47.8843951 330.080899,47.7730619 329.842429,47.7816888 L329.788831,47.7816888 C329.439682,47.8256651 329.164349,48.1208056 329.123324,48.4950729 C329.095525,48.7333396 329.080612,48.9731311 329.078659,49.2132448 C328.466945,48.0358248 327.316384,47.2969192 326.059314,47.2741806 C323.15163,47.3316344 320.628064,50.1468683 320.516402,54.273963 C320.516402,57.036531 321.887614,58.6260849 324.245919,58.6260849 C325.658608,58.5917288 326.967722,57.8240234 327.756579,56.5673253 C327.756579,56.5673253 327.725314,58.290938 329.699501,58.4106333 Z M324.48711,57.1753776 C323.004236,57.1753776 322.128804,55.9975756 322.128804,54.1159652 C322.128804,50.8794037 324.161056,48.8206442 326.081646,48.8206442 C327.783378,48.8206442 328.439952,50.0558999 328.498016,51.6933319 C328.493549,54.350568 326.90348,57.1753776 324.48711,57.1753776 Z" id="Shape" fill="#393939" fill-rule="nonzero" opacity="0.5" transform="translate(326.283104, 52.940557) rotate(90.000000) translate(-326.283104, -52.940557) "></path>
                <g id="Group" opacity="0.5" transform="translate(394.895974, 144.757082) rotate(90.000000) translate(-394.895974, -144.757082) translate(362.895974, 109.757082)" fill="url(#linearGradient-8)" fill-rule="nonzero">
                    <path d="M43.4478873,52.2895105 C57.491831,52.2895105 64,44.1048951 64,33.1300699 C64,13.9706294 49.7847887,0.200699301 32.1397183,0.200699301 C14.4946479,0.200699301 0.27943662,15.8258741 0.27943662,34.9902098 C0.27943662,54.1545455 14.4946479,69.7797203 32.1397183,69.7797203 C38.6519452,69.7181734 44.9865262,67.4658849 50.2715493,63.3328671 C50.8013555,62.9260768 51.1585941,62.3052811 51.2630986,61.6097902 C51.3684454,61.0196225 51.1821375,60.4125746 50.771831,60.0090909 C50.3459067,59.6161484 49.7885956,59.4335179 49.2336455,59.5050285 C48.6786954,59.576539 48.1762031,59.8957353 47.8467606,60.386014 C46.6839437,62.0454545 43.2,64.865035 32.9014085,65.1195804 C17.3160563,65.5013986 4.2771831,52.0251748 4.22760563,35.0979021 C4.17802817,18.3076923 16.8743662,5.04685315 32.1487324,4.86083916 C47.4230986,4.67482517 59.7273239,16.3937063 59.7273239,32.7629371 C59.7273239,43.1797203 53.0478873,48.0160839 44.9983099,47.8300699 C42.4292958,48.0160839 41.915493,46.9 42.2580282,42.9937063 C42.5374648,39.7874126 45.3633803,26.413986 46.3639437,21.7342657 C46.5390045,20.9477426 46.3654849,20.1175559 45.8949088,19.4902177 C45.4243328,18.8628795 44.710805,18.5105182 43.9661972,18.5377622 L43.7949296,18.5377622 C42.7059277,18.6811818 41.8490143,19.6159232 41.7216901,20.7993007 C41.6334493,21.5511295 41.5852938,22.3078694 41.5774648,23.0657343 C40.0360563,19.7174825 36.4394366,17.1132867 32.1577465,16.9272727 C23.0805634,17.1132867 15.2022535,26.041958 14.8597183,39.0629371 C14.8597183,47.8055944 19.1414085,52.827972 26.5059155,52.827972 C31.6439437,52.827972 35.411831,49.4797203 37.4670423,46.3174825 C37.4490141,46.3370629 37.2777465,51.9174825 43.4478873,52.2895105 Z M27.1774648,48.3734266 C22.5532394,48.3734266 19.8129577,44.6531469 19.8129577,38.7006993 C19.8129577,28.4699301 26.1498592,21.9594406 32.1442254,21.9594406 C37.4535211,21.9594406 39.5087324,25.8755245 39.68,31.0741259 C39.6619718,39.4496503 34.7042254,48.3832168 27.1729577,48.3832168 L27.1774648,48.3734266 Z" id="Shape"></path>
                </g>
                <path d="M404.893193,161.687736 C418.558833,161.687736 424.896126,153.687444 424.896126,142.959217 C424.896126,124.230697 411.06228,110.774534 393.896126,110.774534 C376.729973,110.774534 362.896126,126.046015 362.896126,144.774534 C362.896126,163.503053 376.729973,178.774534 393.896126,178.774534 C400.231168,178.714194 406.393421,176.51359 411.535076,172.475482 C412.050664,172.077164 412.397935,171.46953 412.498854,170.789122 C412.603018,170.211479 412.421829,169.616557 412.021511,169.221799 C411.607385,168.837344 411.065198,168.658451 410.525199,168.728094 C409.985199,168.797738 409.496188,169.109624 409.175639,169.58883 C408.043655,171.210712 404.652249,173.968407 394.628052,174.216401 C379.462192,174.593352 366.778514,161.419902 366.728506,144.873732 C366.678499,128.461478 379.03031,115.501303 393.896126,115.317787 C408.761942,115.134271 420.718241,126.591602 420.718241,142.597145 C420.718241,152.779786 414.217288,157.506554 406.384321,157.323039 C403.883954,157.506554 403.383881,156.41538 403.715748,152.59627 C403.988515,149.461624 406.734372,136.392331 407.707242,131.819319 C407.876592,131.051304 407.707367,130.241068 407.249759,129.628919 C406.792151,129.016769 406.098702,128.672994 405.375082,128.699552 L405.206876,128.699552 C404.14602,128.838697 403.311166,129.753638 403.188398,130.91166 C403.102265,131.647098 403.05521,132.387358 403.047468,133.128728 C401.547248,129.855205 398.046735,127.310785 393.882488,127.127269 C385.049374,127.310785 377.384614,136.055059 377.06184,148.76724 C377.06184,157.313119 381.226087,162.223403 388.39532,162.223403 C393.396053,162.223403 397.060226,158.94988 399.06052,155.859873 C399.06052,155.869793 398.892313,161.320705 404.893193,161.687736 Z M389.059053,157.868626 C384.558393,157.868626 381.894366,154.233031 381.894366,148.415088 C381.894366,138.415964 388.058907,132.047473 393.896126,132.047473 C399.06052,132.047473 401.060813,135.866584 401.22902,140.975263 C401.224473,149.139231 396.391947,157.868626 389.059053,157.868626 Z" id="Shape" fill="#393939" fill-rule="nonzero" transform="translate(393.896126, 144.774534) rotate(90.000000) translate(-393.896126, -144.774534) "></path>
                <path d="M165.874313,60.3088884 C166.275929,58.2096351 168.851809,57.4255168 170.749097,58.0855657 C172.646384,58.7456146 174.118975,60.3287395 175.826996,61.4602519 C177.535017,62.5917643 179.824688,63.2468504 181.431151,61.9565292 C182.972986,60.7456125 183.189951,58.34363 184.408646,56.7704307 C185.627342,55.1972314 187.889316,54.6414007 189.841999,54.9937577 C191.794682,55.3461146 193.567331,56.413111 195.293817,57.4751446 L205.874313,63.892011" id="Path" stroke="#535461" stroke-width="3" opacity="0.2"></path>
                <path d="M162.066899,71.3770226 C162.468514,69.2777693 165.044394,68.4936511 166.941682,69.1537 C168.83897,69.8137489 170.311561,71.3968737 172.019582,72.5283861 C173.727603,73.6598986 176.017274,74.3149847 177.623736,73.0246635 C179.165571,71.8137467 179.382536,69.4117642 180.601232,67.838565 C181.819928,66.2653657 184.081901,65.709535 186.034585,66.061892 C187.987268,66.4142489 189.759916,67.4812452 191.486402,68.5432788 L202.066899,74.9601453" id="Path" stroke="#535461" stroke-width="3" opacity="0.2"></path>
                <path d="M165.934001,176.492066 C166.335617,178.59132 168.911497,179.375438 170.808785,178.715389 C172.706073,178.05534 174.178664,176.472215 175.886685,175.340703 C177.594705,174.209191 179.884377,173.554104 181.490839,174.844426 C183.032674,176.055342 183.249639,178.457325 184.468335,180.030524 C185.687031,181.603723 187.949004,182.159554 189.901688,181.807197 C191.854371,181.45484 193.627019,180.387844 195.353505,179.32581 L205.934001,172.908944" id="Path" stroke="#535461" stroke-width="3" opacity="0.2"></path>
                <path d="M161.707729,163.563856 C162.109345,165.663109 164.685225,166.447228 166.582513,165.787179 C168.479801,165.12713 169.952392,163.544005 171.660413,162.412493 C173.368433,161.28098 175.658104,160.625894 177.264567,161.916215 C178.806402,163.127132 179.023367,165.529114 180.242063,167.102314 C181.460759,168.675513 183.722732,169.231344 185.675416,168.878987 C187.628099,168.52663 189.400747,167.459633 191.127233,166.3976 L201.707729,159.980733" id="Path" stroke="#535461" stroke-width="3" opacity="0.2"></path>
                <g id="Group" opacity="0.7" transform="translate(37.288674, 116.008209) rotate(106.000000) translate(-37.288674, -116.008209) translate(21.288674, 92.508209)" fill="url(#linearGradient-9)" fill-rule="nonzero">
                    <path d="M30.0413785,38.8363274 C29.5618297,39.1113834 29.1694371,39.5378962 28.9154587,40.0601507 L28.3364142,39.34291 C28.2536936,38.5654813 26.4981778,22.5303865 23.000933,22.4401044 C20.3217035,22.3698851 17.4218855,22.1241173 15.4779505,22.9416714 L15.3768475,22.6306999 L14.338244,19.4457499 L17.0955986,18.3774123 L17.0542383,18.2520206 L19.2325484,17.4093881 C19.5450486,16.9078212 18.8649011,16.9328996 18.1433933,17.0582913 C18.159995,17.0129657 18.1723137,16.9659089 18.1801581,16.9178526 L19.4439456,8.74231159 C19.4439456,8.74231159 19.7794237,6.991843 19.0395336,6.50532308 C18.2996434,6.01880316 18.3501949,8.74231159 18.3501949,8.74231159 L16.9715176,14.3548455 C16.9715176,14.3548455 13.0101182,12.1880764 10.6387932,11.2651932 C10.3628915,11.122975 10.0707683,11.0217604 9.7702265,10.9642531 C9.35202771,10.8488927 9.05790989,10.8187987 8.94761571,10.9140964 C8.63401688,10.9360312 8.32470911,11.0052354 8.0284975,11.1197388 L7.79871795,11.2100209 L7.67463699,10.8238144 L7.63327667,10.6984226 C8.55078895,9.92210554 9.10340387,8.73975226 9.14063053,7.47334726 C9.40930186,6.03629924 9.05862009,4.54417871 8.18934319,3.42570213 C8.22154794,3.40739953 8.24976162,3.38173897 8.27206383,3.35046709 C8.33855861,3.22476696 8.33855861,3.06989801 8.27206383,2.94419788 C7.89819243,2.05930041 7.1485501,1.43253994 6.26838614,1.26896433 C5.91745778,1.25535379 5.57173823,1.17207113 5.24816494,1.02319654 C4.98621625,0.85767945 4.78860584,0.556739292 4.51746597,0.451410237 C4.16160369,0.37076385 3.79176393,0.478650916 3.52022272,0.742319056 C3.19724572,0.995918772 2.91335573,1.30406575 2.67922956,1.65517087 C2.45453757,2.08172808 2.17608417,2.47174148 1.85202318,2.81379048 C1.59926567,3.02946426 1.28676548,3.14482465 1.02941239,3.35548276 C0.630461742,3.68597015 0.398603074,4.2032395 0.404412009,4.74983883 C0.415457775,5.03561986 0.476284698,5.31648816 0.583640059,5.57742426 C0.512742708,5.96523692 0.486497948,6.36119487 0.505515012,6.75610655 L0.45496351,6.82131025 L0.505515012,6.76613789 C0.595025927,8.58560318 1.62548941,10.1908663 3.16176662,10.9040651 C3.81775746,11.3677038 4.58632013,11.6053684 5.3676503,11.5861961 L5.40901062,11.7115878 L5.56985631,12.2131547 C5.10984217,12.5242478 4.70378855,12.9215732 4.37040705,13.3868214 L4.29228201,13.4971661 C3.97059064,13.998733 2.9136047,15.6739666 3.3731638,16.8927742 C3.3731638,16.9395871 3.38848244,16.9880719 3.41911971,17.0382286 C3.45820555,17.4265495 3.5383975,17.8086176 3.65809045,18.1767855 L6.25919496,26.1717624 L6.35570237,26.4626712 L6.58548192,27.1698806 C6.90800607,28.1639187 7.52808345,29.010308 8.34559328,29.5723862 C9.96324132,29.7479346 13.4375081,30.9065542 13.7729863,30.7560841 L18.0974374,32.4212864 L15.7996419,43.9573257 C15.7996419,43.9573257 14.5128764,46.1441576 16.0478038,46.1140635 C17.5512734,45.9822234 19.0441005,45.7324668 20.5147183,45.3667288 C20.5147183,45.3667288 20.6893507,44.3134383 19.9356738,44.1830309 C19.3951274,44.140387 18.8553685,44.276736 18.3869596,44.5742531 L18.2582831,43.7817773 C18.2582831,43.7817773 24.742662,31.4131368 21.8198661,29.166117 C21.259204,28.7347694 20.6939463,28.2883749 20.1286886,27.8520116 L21.6452337,27.4306954 L26.4522219,41.0382062 L26.4889866,41.0081122 C26.4889866,41.3090524 26.5625161,43.5761349 27.7665609,42.7234711 C28.9783753,41.7445624 30.1241021,40.6717847 31.1948718,39.5134427 C31.1948718,39.5134427 30.7399083,38.5153246 30.0413785,38.8363274 Z M16.7141645,17.3792941 L13.6810744,17.5749052 L12.8676548,15.0068825 L17.0036868,17.3090748 L16.7141645,17.3792941 Z" id="Shape"></path>
                </g>
                <g id="Group-4" transform="translate(37.448202, 115.437951) rotate(106.000000) translate(-37.448202, -115.437951) translate(21.448202, 91.937951)" fill-rule="nonzero">
                    <ellipse id="Oval" fill="#000000" transform="translate(5.568096, 7.285737) rotate(-19.560000) translate(-5.568096, -7.285737) " cx="5.5680963" cy="7.28573695" rx="4.26487419" ry="4.59911496"></ellipse>
                    <path d="M13.2028056,15.07161 L17.4144788,17.5155662 C17.594028,17.6189645 17.8063063,17.6198373 17.9865154,17.5179183 C18.1667245,17.4159993 18.2934741,17.2233859 18.3280738,16.9988736 L19.5659951,8.75762573 L18.5016569,8.75762573 L17.1312643,14.4102434 C17.1312643,14.4102434 9.54842538,10.5867177 8.90890884,11.1860812 C8.2693923,11.7854447 13.2028056,15.07161 13.2028056,15.07161 Z" id="Path" fill="#393939"></path>
                    <path d="M10.2131918,11.9617568 C12.4262427,11.8970899 14.167867,13.7871983 14.1032185,16.1834322 L13.8681715,24.8955937 L4.41931413,25.1716962 L4.61231699,18.0179281 C4.70013265,14.7629484 7.20697025,12.0523293 10.2131918,11.9617568 Z" id="Path" fill="#393939" transform="translate(9.262138, 18.565921) rotate(-17.560000) translate(-9.262138, -18.565921) "></path>
                    <path d="M17.1502849,28.1839217 L13.0595506,29.6818062 C11.7659367,30.1558208 10.340607,30.0753572 9.09714886,29.4581184 C7.85369076,28.8408796 6.89397317,27.737432 6.429144,26.3905458 L15.3975417,23.1295441 L17.1502849,28.1839217 Z" id="Path" fill="#4D8AF0" transform="translate(11.789714, 26.558334) rotate(2.000000) translate(-11.789714, -26.558334) "></path>
                    <path d="M5.01657104,17.6287639 L11.2398111,20.9959875 L17.1137281,18.4828252 L16.8381607,17.5561419 L11.2524942,17.937346 L6.29761305,14.2605393 C5.50912557,13.6731313 5.36095844,14.8744364 5.04245251,15.9181553 C4.75497682,16.880778 4.24202248,17.209226 5.01657104,17.6287639 Z" id="Path" fill="#000000" opacity="0.05" transform="translate(10.860908, 17.550908) rotate(2.000000) translate(-10.860908, -17.550908) "></path>
                    <path d="M4.94371915,17.5733652 L11.2370851,20.99598 L17.1136855,18.4699084 L16.837977,17.5385044 L11.2497292,17.9217422 L6.35972864,14.2754715 C5.51708766,13.6468058 5.38238752,14.8869329 5.07296769,16.0230703 C4.83882605,16.9254972 4.23152872,17.1900068 4.94371915,17.5733652 Z" id="Path" fill="#393939" transform="translate(10.860964, 17.550959) rotate(2.000000) translate(-10.860964, -17.550959) "></path>
                    <path d="M16.4467067,18.3781987 C16.4467067,18.3781987 19.6714986,17.6912504 19.0442425,18.4110221 L16.7512262,19.0575727 L16.4467067,18.3781987 Z" id="Path" fill="#FDA57D" transform="translate(17.785940, 18.569979) rotate(2.000000) translate(-17.785940, -18.569979) "></path>
                    <path d="M18.5265764,9.75746717 C18.5265764,9.75746717 18.4833715,7.42700623 19.0474041,7.84587607 C19.6114366,8.26474591 19.3616888,9.76036803 19.3616888,9.76036803 L18.5265764,9.75746717 Z" id="Path" fill="#FDA57D" transform="translate(18.971296, 8.777930) rotate(2.000000) translate(-18.971296, -8.777930) "></path>
                    <polygon id="Path" fill="#000000" opacity="0.05" transform="translate(10.784141, 24.855979) rotate(2.000000) translate(-10.784141, -24.855979) " points="6.3245391 26.505419 6.4160925 26.8041652 15.2437439 23.2275136 15.1430633 22.9077934"></polygon>
                    <path d="M15.7284808,29.8334509 L21.816157,28.0804807 L26.4628366,41.6947632 L28.3252385,40.0604311 C28.3252385,40.0604311 26.5799705,23.2207716 23.1595368,23.1217228 C19.7391031,23.0226739 15.9575835,22.5839555 14.443496,24.7886505 C12.9294084,26.9933456 15.7284808,29.8334509 15.7284808,29.8334509 Z" id="Path" fill="#4D8AF0" transform="translate(21.159777, 32.357329) rotate(2.000000) translate(-21.159777, -32.357329) "></path>
                    <path d="M14.3301333,25.6603726 C14.3301333,25.6603726 18.4932541,26.1155841 19.694133,27.642348" id="Path" fill="#000000" opacity="0.1" transform="translate(17.012133, 26.651360) rotate(2.000000) translate(-17.012133, -26.651360) "></path>
                    <path d="M12.0506295,30.5768449 L18.1621133,32.9312052 L15.9104386,44.1976761 L18.3413006,44.0305079 C18.3413006,44.0305079 24.7186701,31.9555003 21.8200601,29.7477725 C18.9214501,27.5400447 15.8585879,24.8450502 13.4624566,25.7047521 C11.0663253,26.564454 12.0506295,30.5768449 12.0506295,30.5768449 Z" id="Path" fill="#4D8AF0" transform="translate(17.212944, 34.869242) rotate(2.000000) translate(-17.212944, -34.869242) "></path>
                    <polygon id="Path" fill="#000000" opacity="0.05" transform="translate(15.633798, 14.712494) rotate(2.000000) translate(-15.633798, -14.712494) " points="14.7399226 14.2186808 16.4541965 15.206307 16.5276729 14.8003534"></polygon>
                    <path d="M15.8587955,44.1208216 C15.8587955,44.1208216 14.547014,45.9584421 16.1193856,45.9337043 C17.6565607,45.8290429 19.1826145,45.6252834 20.6857384,45.3240024 C20.6857384,45.3240024 20.8608683,44.4401931 20.091111,44.3253492 C19.5372912,44.2867885 18.9845269,44.3991544 18.5052536,44.6477222 L18.3684952,43.9785412 L15.8587955,44.1208216 Z" id="Path" fill="#333333" transform="translate(18.024408, 44.956247) rotate(2.000000) translate(-18.024408, -44.956247) "></path>
                    <path d="M26.6208203,40.4543739 C26.6208203,40.4543739 26.6288021,42.9804848 27.8392852,42.1183257 C28.9857451,41.1930446 30.0691998,40.1785573 31.0812673,39.0827122 C31.0812673,39.0827122 30.7348353,38.1372697 30.0667487,38.4415834 C29.6114746,38.7011861 29.239621,39.1053673 28.9999356,39.6011414 L28.4446967,38.917803 L26.6208203,40.4543739 Z" id="Path" fill="#333333" transform="translate(28.851044, 40.339457) rotate(2.000000) translate(-28.851044, -40.339457) "></path>
                    <path d="M7.25408555,10.0695053 L7.25408555,10.0695053 C7.87073564,10.0514863 8.38523657,10.5367728 8.40325553,11.1534229 C8.4038666,11.1743353 8.40389004,11.1952607 8.4033258,11.2161744 L8.3634849,12.6929015 C8.34560278,13.3557133 7.81328001,13.8892297 7.15050999,13.9085963 L7.15050999,13.9085963 C6.53385989,13.9266152 6.01935897,13.4413288 6.00134001,12.8246787 C6.00072893,12.8037663 6.0007055,12.7828409 6.00126973,12.7619272 L6.04111063,11.2852 C6.05899276,10.6223883 6.59131552,10.0888719 7.25408555,10.0695053 Z" id="Rectangle" fill="#FDA57D" transform="translate(7.202298, 11.989051) rotate(-17.560000) translate(-7.202298, -11.989051) "></path>
                    <path d="M6.93821323,10.1606706 C6.26140554,10.378761 5.90938443,11.0544643 6.15065466,11.6723865 L6.29821473,12.0538066 C7.18958293,12.0374902 8.04993093,11.7622755 8.75348602,11.2683955 L8.60592595,10.8869754 C8.36156077,10.2700433 7.61613039,9.94540121 6.93821323,10.1606706 Z" id="Path" fill="#000000" opacity="0.05" transform="translate(7.414062, 11.073997) rotate(2.000000) translate(-7.414062, -11.073997) "></path>
                    <ellipse id="Oval" fill="#FDA57D" transform="translate(5.949839, 8.095030) rotate(-17.560000) translate(-5.949839, -8.095030) " cx="5.94983884" cy="8.09502987" rx="3.78484211" ry="4.09786732"></ellipse>
                    <path d="M2.67516447,9.55652211 C3.30188484,9.43753245 3.76549405,8.79550189 3.77696151,8.03069529 C3.91305266,6.60531194 4.10093167,5.78104399 6.35904546,5.63045936 C8.61715924,5.47987473 9.05226133,5.38851426 8.94568652,4.67248449 C8.8761024,4.18056827 7.81227102,3.3683415 7.14863972,2.90167704 C6.79333688,2.66942576 6.37278699,2.63406924 5.99636223,2.80480262 L3.69551854,3.78562244 L2.54329732,5.14191954 L1.82254043,6.69092215 L2.04522686,8.27051716 L2.67516447,9.55652211 Z" id="Path" fill="#000000" opacity="0.05" transform="translate(5.391454, 6.127290) rotate(2.000000) translate(-5.391454, -6.127290) "></path>
                    <path d="M1.83494788,9.87617574 C2.46127036,9.7571847 2.92458414,9.11515311 2.93604279,8.35034648 C3.07204473,6.92496282 3.25980289,6.10069445 5.51648365,5.95010484 C7.7731644,5.79951523 8.20799025,5.7081538 8.10148162,4.99212426 C8.03194067,4.50020819 6.96878264,3.68798377 6.30557146,3.22132076 C5.95049359,2.98907027 5.53021045,2.95371467 5.15402487,3.12444888 L2.85011049,4.10525803 L1.69862305,5.46155769 L0.978326569,7.01056189 L1.20087488,8.59015643 L1.83494788,9.87617574 Z" id="Path" fill="#000000" transform="translate(4.547240, 6.446939) rotate(2.000000) translate(-4.547240, -6.446939) "></path>
                    <ellipse id="Oval" fill="#FDA57D" transform="translate(2.680045, 9.034119) rotate(-17.560000) translate(-2.680045, -9.034119) " cx="2.68004515" cy="9.03411889" rx="1" ry="1"></ellipse>
                    <path d="M2.32593871,7.30155692 C2.02829603,6.79795218 1.84297578,6.21757902 1.78661779,5.61254889 C1.7798737,5.0265215 2.01328989,4.47320779 2.41600978,4.12057343 C2.67752275,3.89542784 2.99179475,3.76970873 3.24852253,3.53903301 C3.57612498,3.17228705 3.85726629,2.75381755 4.08371251,2.29588045 C4.32029091,1.91939835 4.60730649,1.5891372 4.934042,1.31742906 C5.21032531,1.0354063 5.58663076,0.922193915 5.948601,1.01219658 C6.23980069,1.12899185 6.42675408,1.44942494 6.69432399,1.63230027 C7.02324133,1.79169269 7.37409957,1.88072052 7.72974845,1.895032 C8.62198453,2.07389338 9.38376173,2.74879828 9.76649695,3.69951176 C9.83420547,3.83451199 9.8347301,4.00055118 9.76787323,4.13508398 C9.71399674,4.20075721 9.64450537,4.24653235 9.56804508,4.26671414 C8.07758034,4.84596909 6.58236526,5.43072106 5.05809061,5.87202077 C4.57312851,5.99380496 4.09582751,6.15238443 3.62927585,6.34673315 C2.92617539,6.6699582 2.30039573,7.18170721 1.80319151,7.84006526" id="Path" fill="#000000" transform="translate(5.802063, 4.410991) rotate(2.000000) translate(-5.802063, -4.410991) "></path>
                </g>
            </g>
        </g>
    </g>
</svg>