<?xml version="1.0" encoding="UTF-8"?>
<svg width="14px" height="8px" viewBox="0 0 14 8" version="1.1" xmlns="http://www.w3.org/2000/svg" xmlns:xlink="http://www.w3.org/1999/xlink">
    <!-- Generator: sketchtool 61.2 (101010) - https://sketch.com -->
    <title>55C3B102-A2F9-481F-A264-D068A611B1C5</title>
    <desc>Created with sketchtool.</desc>
    <g id="Page-1" stroke="none" stroke-width="1" fill="none" fill-rule="evenodd" opacity="0.84000651">
        <g id="Project" transform="translate(-353.000000, -496.000000)" fill="#171717" fill-rule="nonzero">
            <g id="left-arrow-copy" transform="translate(360.000000, 500.000000) scale(-1, 1) translate(-360.000000, -500.000000) translate(353.000000, 496.000000)">
                <path d="M4.56687226,0.120319769 C4.76423848,-0.0401065896 5.07495694,-0.0401065896 5.27232316,0.120319769 C5.46302161,0.275326318 5.46302161,0.533309245 5.27232316,0.687954474 L1.69528255,3.59550156 L13.4990276,3.59550156 C13.7741846,3.59550156 14,3.77327131 14,3.99692877 C14,4.22058624 13.7741846,4.40413712 13.4990276,4.40413712 L1.69528255,4.40413712 L5.27232316,7.3062644 C5.46302161,7.46669075 5.46302161,7.725035 5.27232316,7.87968023 C5.07495694,8.04010659 4.76423848,8.04010659 4.56687226,7.87968023 L0.143023837,4.28381735 C-0.0476746124,4.1288108 -0.0476746124,3.87082788 0.143023837,3.71618265 L4.56687226,0.120319769 Z" id="Shape"></path>
            </g>
        </g>
    </g>
</svg>